<?xml version="1.0" standalone="no"?>
<!DOCTYPE svg PUBLIC "-//W3C//DTD SVG 20010904//EN"
 "http://www.w3.org/TR/2001/REC-SVG-20010904/DTD/svg10.dtd">
<svg version="1.0" xmlns="http://www.w3.org/2000/svg"
 width="1032.000000pt" height="1032.000000pt" viewBox="0 0 1032.000000 1032.000000"
 preserveAspectRatio="xMidYMid meet">
<metadata>
Created by potrace 1.11, written by Peter Selinger 2001-2013
</metadata>
<g transform="translate(0.000000,1032.000000) scale(0.100000,-0.100000)"
fill="#000000" stroke="none">
<path d="M37 9568 c20 -35 45 -81 57 -103 11 -22 25 -44 29 -50 16 -20 127
-218 127 -227 0 -4 5 -8 10 -8 6 0 10 -4 10 -9 0 -5 32 -64 72 -132 39 -68 76
-134 82 -146 6 -13 14 -23 19 -23 4 0 7 -5 7 -11 0 -6 26 -54 57 -107 32 -54
68 -117 82 -142 13 -25 34 -61 46 -80 12 -19 25 -42 28 -50 4 -8 15 -28 26
-45 10 -16 28 -47 40 -67 50 -88 60 -106 90 -156 17 -29 31 -57 31 -62 0 -6 5
-10 10 -10 6 0 10 -4 10 -9 0 -5 23 -49 51 -98 29 -48 65 -113 82 -143 17 -30
33 -57 36 -60 3 -3 19 -30 35 -60 16 -30 34 -62 41 -70 7 -8 22 -33 32 -55 11
-22 63 -114 116 -204 54 -90 97 -165 97 -167 0 -1 27 -48 60 -103 32 -56 56
-101 52 -101 -4 0 1 -5 11 -11 9 -5 17 -14 17 -19 0 -8 64 -122 157 -278 12
-20 25 -44 29 -52 35 -74 118 -200 132 -201 9 0 709 -1 1554 -1 l1537 0 -35
-67 c-19 -36 -44 -79 -55 -96 -10 -16 -23 -40 -28 -52 -6 -12 -28 -51 -51 -86
-22 -35 -40 -69 -40 -76 0 -6 -4 -11 -10 -11 -5 0 -10 -6 -10 -14 0 -7 -7 -19
-15 -26 -8 -6 -14 -15 -12 -18 1 -4 -24 -50 -54 -102 -49 -83 -92 -156 -161
-275 -9 -16 -23 -42 -30 -57 -7 -16 -16 -28 -20 -28 -4 0 -8 -4 -8 -9 0 -6
-25 -52 -55 -104 -30 -51 -55 -99 -55 -105 0 -7 -4 -12 -9 -12 -5 0 -11 -8
-15 -17 -3 -10 -15 -31 -26 -48 -11 -16 -23 -37 -27 -45 -7 -16 -118 -206
-133 -230 -6 -8 -16 -26 -23 -40 -7 -14 -31 -56 -53 -95 -47 -79 -78 -133
-107 -187 -12 -21 -24 -38 -29 -38 -4 0 -8 -6 -8 -13 0 -7 -36 -74 -80 -149
-44 -75 -80 -141 -80 -147 0 -6 -4 -11 -8 -11 -5 0 -19 -22 -32 -50 -13 -28
-27 -50 -31 -50 -4 0 -11 -10 -14 -22 -4 -13 -19 -43 -35 -68 -51 -85 -167
-285 -184 -318 l-17 -33 56 -94 c30 -52 55 -99 55 -104 0 -6 5 -11 10 -11 6 0
10 -5 10 -11 0 -9 63 -121 100 -179 6 -8 18 -31 28 -50 9 -19 20 -37 23 -40 9
-8 129 -221 129 -229 0 -4 8 -16 18 -27 9 -10 25 -35 34 -54 10 -19 30 -55 44
-80 15 -25 38 -65 52 -90 13 -25 29 -50 33 -56 5 -6 21 -33 35 -60 39 -72 48
-86 66 -114 22 -34 65 -109 84 -145 8 -16 21 -39 27 -50 29 -47 234 -402 265
-457 10 -18 51 -89 90 -157 40 -68 72 -127 72 -132 0 -5 5 -9 10 -9 6 0 10 -4
10 -10 0 -5 20 -44 45 -86 25 -41 45 -80 45 -85 0 -5 5 -9 10 -9 6 0 10 -9 10
-19 0 -11 4 -21 9 -23 4 -1 45 -68 91 -148 45 -80 89 -156 98 -170 9 -14 17
-27 17 -30 0 -3 8 -16 17 -30 20 -31 127 -217 166 -290 33 -60 48 -71 59 -43
3 10 21 42 40 71 18 28 29 52 25 52 -4 0 -2 4 3 8 6 4 60 93 120 197 59 105
122 212 139 239 17 27 31 51 31 55 0 3 8 17 17 31 19 31 83 141 113 195 34 61
205 357 223 385 9 14 14 26 11 26 -2 1 3 10 13 20 9 11 27 39 41 64 60 112 92
166 104 178 7 7 13 18 13 23 0 5 18 39 40 75 22 36 40 68 40 70 0 2 16 28 35
58 19 30 35 57 35 60 0 4 111 197 130 226 6 8 13 22 17 30 3 8 15 27 25 42 11
16 16 28 11 28 -4 0 -2 4 5 8 11 8 39 56 89 152 10 19 21 37 24 40 10 9 159
272 159 281 0 5 5 9 10 9 6 0 10 4 10 8 0 7 40 82 75 140 6 9 25 44 44 77 19
33 39 63 44 66 5 3 8 8 8 10 -2 12 12 49 19 49 4 0 15 18 25 40 10 22 21 40
25 40 3 0 12 16 19 35 7 19 17 35 22 35 5 0 9 5 9 11 0 9 78 150 110 199 6 8
13 22 17 30 3 8 21 39 40 68 18 29 33 54 33 56 0 3 27 50 60 106 33 56 60 105
60 110 0 5 6 15 13 22 7 7 29 42 49 78 19 36 65 115 101 177 36 62 77 132 90
155 37 66 61 108 94 163 16 28 32 57 36 65 4 8 16 29 27 45 11 17 23 37 27 45
3 8 14 27 24 41 10 14 16 29 12 33 -3 3 -1 6 5 6 7 0 12 7 12 15 0 8 3 15 8
15 4 0 16 20 27 45 11 25 22 45 25 45 3 0 16 21 30 48 13 26 38 70 55 97 17
28 37 64 45 80 8 17 18 32 21 35 4 3 16 24 28 47 11 23 25 45 31 48 6 4 8 10
5 15 -3 4 2 13 10 20 8 7 15 19 15 26 0 8 5 14 10 14 6 0 10 4 10 9 0 5 31 62
68 127 38 66 75 130 83 144 8 14 16 27 19 30 3 3 11 16 18 30 6 14 25 48 42
75 16 28 35 62 42 78 7 15 16 27 20 27 4 0 8 9 8 20 0 11 3 20 8 20 4 0 16 17
27 38 11 20 43 75 70 122 28 47 54 92 58 100 4 8 17 31 28 50 12 19 31 53 42
75 12 22 25 42 28 45 3 3 14 21 24 40 10 19 37 67 60 105 23 39 45 77 48 85 4
8 15 29 26 45 26 43 62 105 81 141 9 16 25 43 37 60 11 16 21 31 20 34 0 3 12
24 26 47 15 24 27 45 27 48 0 4 47 86 90 155 5 8 21 38 36 65 15 28 30 52 33
55 4 3 15 21 24 40 10 19 31 58 48 85 17 28 33 58 36 68 3 9 9 17 14 17 5 0 9
6 9 14 0 8 6 21 13 28 7 7 18 24 24 38 7 14 25 48 41 75 167 287 202 349 202
357 0 4 3 8 8 8 4 0 13 15 21 33 8 17 17 34 20 37 9 8 52 83 58 103 3 9 9 17
14 17 5 0 9 4 9 9 0 6 38 76 85 156 47 81 85 151 85 156 0 5 4 9 8 9 4 0 13
12 20 28 7 15 23 45 36 67 22 37 63 108 190 328 28 48 56 96 61 105 6 10 23
40 39 67 16 28 37 65 48 83 l20 32 -5161 0 -5160 0 36 -62z"/>
</g>
</svg>
